/* XPM */
static char * asc_xpm[] = {
"32 32 49 1",
" 	c None",
".	c #6B734A",
"+	c #737B4A",
"@	c #737B52",
"#	c #636B42",
"$	c #7B7B52",
"%	c #8C8C6B",
"&	c #7B8452",
"*	c #6B7B4A",
"=	c #7B845A",
"-	c #637342",
";	c #6B7B42",
">	c #6B844A",
",	c #73844A",
"'	c #7B844A",
")	c #7B8C52",
"!	c #8C946B",
"~	c #84946B",
"{	c #636B3A",
"]	c #6B7342",
"^	c #737B42",
"/	c #949C73",
"(	c #8C9473",
"_	c #949473",
":	c #848C5A",
"<	c #848C6B",
"[	c #738452",
"}	c #848C63",
"|	c #7B9452",
"1	c #7B8C5A",
"2	c #849463",
"3	c #8C9C73",
"4	c #8C9C6B",
"5	c #9C9C73",
"6	c #9CA57B",
"7	c #94946B",
"8	c #949C6B",
"9	c #6B733A",
"0	c #8C9463",
"a	c #7B8C63",
"b	c #7B8463",
"c	c #848463",
"d	c #5A633A",
"e	c #5A6B42",
"f	c #73845A",
"g	c #737B5A",
"h	c #63734A",
"i	c #848C52",
"j	c #73734A",
"    .++@#$$$$$$$$$$$$$$%        ",
"   &*===-**;*;**>,,,'')&        ",
"   +=!~{;----#---]]]]^^']       ",
"  &)///,*=!!!!!!!!!(!_:,,       ",
"  *=<<],]!!!!~~~~!!!!!!],{      ",
" &[!<},,=((!~~~~!!!!!!!=*;      ",
" &}~}+|&////////////////&)]     ",
"&1!2}&[:/3!!(!!45////556!))     ",
"&1!2#*-<<<<<<<<<<%!!!(_//+&]    ",
" &11*;@}}}}}}}}}!!!778///:''    ",
" &[],*<<}}}}}}}}<!!!!77888+'9   ",
"  +&,1!!~<<}}}}~!!!!!88888:',   ",
"  +)[!!~2}}}}}}}200!!!!!7!!+,{  ",
"  &&1!2}}}}aaaaa}}}}}}}}}}}$;]  ",
" +1&4!2}}}aabbbbbbba}}}}}}cc];d ",
" :)2!!222}aabbbbabbbbbbbabbb@-- ",
" :1}!!222}}}aaa}}aaaaaabbbb=.-- ",
" +:&!022}}aaaaaaaaaaaa======#-e ",
"  ))122}}a111aaaaaa111====f.#e  ",
"  ][+1=================fgggeed  ",
"   ,,=aa11a=aaaaa}}aa11===.-#   ",
"   ][@aa====aaaa}}}}aaaab=hh#   ",
"    +*@=======aaa}}}}}aaa@*.    ",
"    +)&}i11=====1=======1.*-    ",
"     111}:111===========@**     ",
"     +)[111=============+*-     ",
"      111::::::}}}}22}2:=1      ",
"      +:1::11111::1::}}&&+      ",
"       1&=111=========&[[       ",
"       *[@@@@++@@@@@@@@@]       ",
"        &&&&&&&111111:11        ",
"        a@@@@@$=1======j        "};
